<svg width="403" height="44" viewBox="0 0 403 44" fill="none" xmlns="http://www.w3.org/2000/svg">
<path d="M17.96 43.84C14.52 43.84 11.2 43.42 8 42.58C4.84 41.7 2.26 40.58 0.26 39.22L4.16 30.46C6.04 31.66 8.2 32.66 10.64 33.46C13.12 34.22 15.58 34.6 18.02 34.6C19.66 34.6 20.98 34.46 21.98 34.18C22.98 33.86 23.7 33.46 24.14 32.98C24.62 32.46 24.86 31.86 24.86 31.18C24.86 30.22 24.42 29.46 23.54 28.9C22.66 28.34 21.52 27.88 20.12 27.52C18.72 27.16 17.16 26.8 15.44 26.44C13.76 26.08 12.06 25.62 10.34 25.06C8.66 24.5 7.12 23.78 5.72 22.9C4.32 21.98 3.18 20.8 2.3 19.36C1.42 17.88 0.98 16.02 0.98 13.78C0.98 11.26 1.66 8.98 3.02 6.94C4.42 4.9 6.5 3.26 9.26 2.02C12.02 0.779998 15.46 0.159997 19.58 0.159997C22.34 0.159997 25.04 0.479998 27.68 1.12C30.36 1.72 32.74 2.62 34.82 3.82L31.16 12.64C29.16 11.56 27.18 10.76 25.22 10.24C23.26 9.68 21.36 9.4 19.52 9.4C17.88 9.4 16.56 9.58 15.56 9.94C14.56 10.26 13.84 10.7 13.4 11.26C12.96 11.82 12.74 12.46 12.74 13.18C12.74 14.1 13.16 14.84 14 15.4C14.88 15.92 16.02 16.36 17.42 16.72C18.86 17.04 20.42 17.38 22.1 17.74C23.82 18.1 25.52 18.56 27.2 19.12C28.92 19.64 30.48 20.36 31.88 21.28C33.28 22.16 34.4 23.34 35.24 24.82C36.12 26.26 36.56 28.08 36.56 30.28C36.56 32.72 35.86 34.98 34.46 37.06C33.1 39.1 31.04 40.74 28.28 41.98C25.56 43.22 22.12 43.84 17.96 43.84ZM61.4277 43.84C55.2277 43.84 50.3877 42.14 46.9077 38.74C43.4277 35.34 41.6877 30.52 41.6877 24.28V0.999997H53.5677V23.92C53.5677 27.52 54.2677 30.1 55.6677 31.66C57.1077 33.22 59.0677 34 61.5477 34C64.0277 34 65.9677 33.22 67.3677 31.66C68.7677 30.1 69.4677 27.52 69.4677 23.92V0.999997H81.1677V24.28C81.1677 30.52 79.4277 35.34 75.9477 38.74C72.4677 42.14 67.6277 43.84 61.4277 43.84ZM110.156 43.84C106.836 43.84 103.756 43.32 100.916 42.28C98.1156 41.2 95.6756 39.68 93.5956 37.72C91.5556 35.76 89.9556 33.46 88.7956 30.82C87.6356 28.14 87.0556 25.2 87.0556 22C87.0556 18.8 87.6356 15.88 88.7956 13.24C89.9556 10.56 91.5556 8.24 93.5956 6.28C95.6756 4.32 98.1156 2.82 100.916 1.78C103.756 0.699997 106.836 0.159997 110.156 0.159997C114.036 0.159997 117.496 0.839998 120.536 2.2C123.616 3.56 126.176 5.52 128.216 8.08L120.656 14.92C119.296 13.32 117.796 12.1 116.156 11.26C114.556 10.42 112.756 10 110.756 10C109.036 10 107.456 10.28 106.016 10.84C104.576 11.4 103.336 12.22 102.296 13.3C101.296 14.34 100.496 15.6 99.8956 17.08C99.3356 18.56 99.0556 20.2 99.0556 22C99.0556 23.8 99.3356 25.44 99.8956 26.92C100.496 28.4 101.296 29.68 102.296 30.76C103.336 31.8 104.576 32.6 106.016 33.16C107.456 33.72 109.036 34 110.756 34C112.756 34 114.556 33.58 116.156 32.74C117.796 31.9 119.296 30.68 120.656 29.08L128.216 35.92C126.176 38.44 123.616 40.4 120.536 41.8C117.496 43.16 114.036 43.84 110.156 43.84ZM153.814 43.84C150.454 43.84 147.354 43.3 144.514 42.22C141.674 41.14 139.194 39.62 137.074 37.66C134.994 35.66 133.374 33.34 132.214 30.7C131.054 28.06 130.474 25.16 130.474 22C130.474 18.84 131.054 15.94 132.214 13.3C133.374 10.66 134.994 8.36 137.074 6.4C139.194 4.4 141.674 2.86 144.514 1.78C147.354 0.699997 150.454 0.159997 153.814 0.159997C157.214 0.159997 160.314 0.699997 163.114 1.78C165.954 2.86 168.414 4.4 170.494 6.4C172.574 8.36 174.194 10.66 175.354 13.3C176.554 15.94 177.154 18.84 177.154 22C177.154 25.16 176.554 28.08 175.354 30.76C174.194 33.4 172.574 35.7 170.494 37.66C168.414 39.62 165.954 41.14 163.114 42.22C160.314 43.3 157.214 43.84 153.814 43.84ZM153.814 34C155.414 34 156.894 33.72 158.254 33.16C159.654 32.6 160.854 31.8 161.854 30.76C162.894 29.68 163.694 28.4 164.254 26.92C164.854 25.44 165.154 23.8 165.154 22C165.154 20.16 164.854 18.52 164.254 17.08C163.694 15.6 162.894 14.34 161.854 13.3C160.854 12.22 159.654 11.4 158.254 10.84C156.894 10.28 155.414 10 153.814 10C152.214 10 150.714 10.28 149.314 10.84C147.954 11.4 146.754 12.22 145.714 13.3C144.714 14.34 143.914 15.6 143.314 17.08C142.754 18.52 142.474 20.16 142.474 22C142.474 23.8 142.754 25.44 143.314 26.92C143.914 28.4 144.714 29.68 145.714 30.76C146.754 31.8 147.954 32.6 149.314 33.16C150.714 33.72 152.214 34 153.814 34ZM211.877 19.42H231.257V28.6H211.877V19.42ZM212.717 43H200.837V0.999997H233.777V10.18H212.717V43ZM239.333 43V0.999997H258.533C262.373 0.999997 265.673 1.62 268.433 2.86C271.233 4.1 273.393 5.9 274.913 8.26C276.433 10.58 277.193 13.34 277.193 16.54C277.193 19.7 276.433 22.44 274.913 24.76C273.393 27.04 271.233 28.8 268.433 30.04C265.673 31.24 262.373 31.84 258.533 31.84H245.933L251.213 26.86V43H239.333ZM265.313 43L254.873 27.7H267.533L278.033 43H265.313ZM251.213 28.12L245.933 22.66H257.813C260.293 22.66 262.133 22.12 263.333 21.04C264.573 19.96 265.193 18.46 265.193 16.54C265.193 14.58 264.573 13.06 263.333 11.98C262.133 10.9 260.293 10.36 257.813 10.36H245.933L251.213 4.9V28.12ZM294.667 17.26H314.167V26.14H294.667V17.26ZM295.507 33.82H317.467V43H283.747V0.999997H316.687V10.18H295.507V33.82ZM338.819 43.84C335.379 43.84 332.059 43.42 328.859 42.58C325.699 41.7 323.119 40.58 321.119 39.22L325.019 30.46C326.899 31.66 329.059 32.66 331.499 33.46C333.979 34.22 336.439 34.6 338.879 34.6C340.519 34.6 341.839 34.46 342.839 34.18C343.839 33.86 344.559 33.46 344.999 32.98C345.479 32.46 345.719 31.86 345.719 31.18C345.719 30.22 345.279 29.46 344.399 28.9C343.519 28.34 342.379 27.88 340.979 27.52C339.579 27.16 338.019 26.8 336.299 26.44C334.619 26.08 332.919 25.62 331.199 25.06C329.519 24.5 327.979 23.78 326.579 22.9C325.179 21.98 324.039 20.8 323.159 19.36C322.279 17.88 321.839 16.02 321.839 13.78C321.839 11.26 322.519 8.98 323.879 6.94C325.279 4.9 327.359 3.26 330.119 2.02C332.879 0.779998 336.319 0.159997 340.439 0.159997C343.199 0.159997 345.899 0.479998 348.539 1.12C351.219 1.72 353.599 2.62 355.679 3.82L352.019 12.64C350.019 11.56 348.039 10.76 346.079 10.24C344.119 9.68 342.219 9.4 340.379 9.4C338.739 9.4 337.419 9.58 336.419 9.94C335.419 10.26 334.699 10.7 334.259 11.26C333.819 11.82 333.599 12.46 333.599 13.18C333.599 14.1 334.019 14.84 334.859 15.4C335.739 15.92 336.879 16.36 338.279 16.72C339.719 17.04 341.279 17.38 342.959 17.74C344.679 18.1 346.379 18.56 348.059 19.12C349.779 19.64 351.339 20.36 352.739 21.28C354.139 22.16 355.259 23.34 356.099 24.82C356.979 26.26 357.419 28.08 357.419 30.28C357.419 32.72 356.719 34.98 355.319 37.06C353.959 39.1 351.899 40.74 349.139 41.98C346.419 43.22 342.979 43.84 338.819 43.84ZM390.987 0.999997H402.867V43H390.987V0.999997ZM374.787 43H362.907V0.999997H374.787V43ZM391.827 26.62H373.947V16.78H391.827V26.62Z" fill="#F18816"/>
</svg>
